<svg width="25" height="25" viewBox="0 0 25 25" fill="none" xmlns="http://www.w3.org/2000/svg">
<path d="M21.875 9.37504H13.5417V7.29171C13.5417 6.46291 13.8709 5.66805 14.457 5.082C15.043 4.49595 15.8379 4.16671 16.6667 4.16671C16.9429 4.16671 17.2079 4.05696 17.4032 3.86161C17.5986 3.66626 17.7083 3.40131 17.7083 3.12504C17.7083 2.84877 17.5986 2.58382 17.4032 2.38847C17.2079 2.19312 16.9429 2.08337 16.6667 2.08337C15.6238 2.08553 14.6055 2.40072 13.7438 2.98815C12.882 3.57558 12.2165 4.40819 11.8333 5.37817C10.9526 4.23434 9.66714 3.47136 8.24121 3.24604C6.81527 3.02072 5.3572 3.35018 4.16668 4.16671C4.16668 4.16671 6.03439 8.81254 11.5208 6.67817C11.4873 6.88119 11.4665 7.0861 11.4583 7.29171V9.37504H3.12501C2.84874 9.37504 2.58379 9.48479 2.38844 9.68014C2.19309 9.87549 2.08334 10.1404 2.08334 10.4167V21.875C2.08334 22.1513 2.19309 22.4163 2.38844 22.6116C2.58379 22.807 2.84874 22.9167 3.12501 22.9167H21.875C22.1513 22.9167 22.4162 22.807 22.6116 22.6116C22.8069 22.4163 22.9167 22.1513 22.9167 21.875V10.4167C22.9167 10.1404 22.8069 9.87549 22.6116 9.68014C22.4162 9.48479 22.1513 9.37504 21.875 9.37504ZM4.16668 20.8334V17.7084C4.99548 17.7084 5.79033 18.0376 6.37639 18.6237C6.96244 19.2097 7.29168 20.0046 7.29168 20.8334H4.16668ZM4.16668 14.5834V11.4584H7.29168C7.29168 12.2872 6.96244 13.082 6.37639 13.6681C5.79033 14.2541 4.99548 14.5834 4.16668 14.5834ZM12.5 17.7084C12.088 17.7084 11.6852 17.5862 11.3426 17.3573C11 17.1284 10.7329 16.803 10.5753 16.4223C10.4176 16.0416 10.3763 15.6227 10.4567 15.2186C10.5371 14.8145 10.7355 14.4433 11.0269 14.1519C11.3182 13.8605 11.6894 13.6621 12.0936 13.5817C12.4977 13.5014 12.9166 13.5426 13.2973 13.7003C13.6779 13.858 14.0033 14.125 14.2322 14.4676C14.4612 14.8102 14.5833 15.213 14.5833 15.625C14.5833 16.1776 14.3639 16.7075 13.9731 17.0982C13.5824 17.4889 13.0525 17.7084 12.5 17.7084ZM20.8333 20.8334H17.7083C17.7083 20.0046 18.0376 19.2097 18.6236 18.6237C19.2097 18.0376 20.0045 17.7084 20.8333 17.7084V20.8334ZM20.8333 14.5834C20.0045 14.5834 19.2097 14.2541 18.6236 13.6681C18.0376 13.082 17.7083 12.2872 17.7083 11.4584H20.8333V14.5834Z" fill="#FFA500"/>
</svg>
