<svg width="60" height="60" viewBox="0 0 60 60" fill="none" xmlns="http://www.w3.org/2000/svg">
<path d="M43.4014 20.5452L30 27.0228L16.5986 20.5452L0 52.4099L10.3401 51.4285L15.6463 59.9999L30 32.519L44.3537 59.9999L49.6599 51.4285L60 52.4099L43.4014 20.5452Z" fill="#FFBF4B"/>
<path d="M30 42.1374C42.0977 42.1374 51.9048 32.7046 51.9048 21.0687C51.9048 9.43278 42.0977 0 30 0C17.9023 0 8.09525 9.43278 8.09525 21.0687C8.09525 32.7046 17.9023 42.1374 30 42.1374Z" fill="#EDEDED"/>
<path d="M30 37.6226C39.5053 37.6226 47.2109 30.2111 47.2109 21.0686C47.2109 11.9261 39.5053 4.51465 30 4.51465C20.4947 4.51465 12.7891 11.9261 12.7891 21.0686C12.7891 30.2111 20.4947 37.6226 30 37.6226Z" fill="#BCBCBC"/>
<path d="M30.8163 11.1232L33.6735 16.6194C33.8095 16.8811 34.0816 17.0774 34.3537 17.1428L40.6803 18.0588C41.4286 18.1897 41.7687 19.0403 41.2245 19.5637L36.6667 23.8822C36.4626 24.0785 36.3265 24.4056 36.3946 24.6673L37.483 30.7524C37.619 31.4721 36.8027 32.061 36.1224 31.6684L30.4762 28.7895C30.2041 28.6586 29.8639 28.6586 29.5918 28.7895L23.8775 31.6684C23.1973 31.9956 22.3809 31.4721 22.517 30.7524L23.6054 24.6673C23.6735 24.4056 23.5374 24.0785 23.3333 23.8822L18.7755 19.5637C18.2313 19.0403 18.5034 18.1243 19.3197 18.0588L25.6463 17.1428C25.9184 17.0774 26.1905 16.9465 26.3265 16.6194L29.1837 11.1232C29.5238 10.4689 30.4762 10.4689 30.8163 11.1232Z" fill="white"/>
</svg>
